# xmcd
#
# Track frame offsets:
#	150
#	25793
#	46444
#	61962
#	88879
#	106420
#	120000
#	137031
#	153944
#	168140
#	182813
#	197396
#	215189
#	226587
#	255514
#	278832
#	294054
#
# Disc length: 4212 seconds
#
# Revision: 0
# Processed by: cddbd v1.5.2PL0 Copyright (c) Steve Scherf et al.
# Submitted via: EasyCDDAExtractor 11.1.0.1
#
DISCID=dc107211
DTITLE=Various Artist - Byron Bay Bluesfest 2016 - Disc 1
DYEAR=2016
DGENRE=Blues
TTITLE0=D'Angelo And The Vanguard - Really Love
TTITLE1=Hiatus Kaiyote - Nakamarra
TTITLE2=The Cat Empire - Bulls
TTITLE3=Tedeschi Trucks Band - Don't Know What It Means
TTITLE4=Melissa Etheridge - Bring Me Some Water
TTITLE5=UB40 - Red Red Wine
TTITLE6=The Selecter - Box Fresh
TTITLE7=Harts - Lovers In Bloom
TTITLE8=Mojo Juju - A Heart Is Not A Yo-Yo
TTITLE9=Sahara Beck - Brother Sister
TTITLE10=Brian Wilson - Love And Mercy
TTITLE11=Tom Jones - Tower Of Song
TTITLE12=Russell Morris - Lonesome Road
TTITLE13=Jackson Browne - The Long Way Around
TTITLE14=Playing For Change - Stand By Me
TTITLE15=The Blind Boys Of Alabama - Run On For A Long Time
TTITLE16=Chain - Black And Blue
EXTD=
EXTT0=
EXTT1=
EXTT2=
EXTT3=
EXTT4=
EXTT5=
EXTT6=
EXTT7=
EXTT8=
EXTT9=
EXTT10=
EXTT11=
EXTT12=
EXTT13=
EXTT14=
EXTT15=
EXTT16=
PLAYORDER=
